<svg width="1002" height="897" viewBox="0 0 1002 897" fill="none" xmlns="http://www.w3.org/2000/svg">
<path d="M291.539 702.017C293.039 681.85 296.039 640.717 296.039 637.517L337.039 649.017L322.539 702.017L315.039 838.017L273.289 846.017L231.539 854.017L184.039 895.517L138.039 893.017V825.517L172.039 827.517L187.539 848.517L199.039 843.017L187.539 809.517L225.039 750.517L267.039 748.517L291.539 702.017Z" stroke="black"/>
<path d="M703.539 456.017L718.539 388.017L905.039 426.517L867.539 462.017L844.539 467.017L776.539 514.517L768.039 550.017L732.039 571.017L723.039 592.517L686.539 582.517L679.539 567.017L650.039 558.017L670.039 505.017L683.039 478.017L703.539 456.017Z" stroke="black"/>
<path d="M990.539 436.517L793.039 399.517L798.539 368.017L863.039 321.517L901.539 315.517L929.539 319.517L934.039 325.017L939.039 344.017L951.039 357.517L945.039 365.017L951.039 376.517H963.039L973.539 374.017L981.039 365.017L1000.54 371.017L986.539 418.517L993.539 424.017L990.539 436.517Z" stroke="black"/>
<path d="M251.039 486.517C263.872 412.683 291.539 262.117 291.539 258.517L357.039 275.017L430.039 330.017L554.539 354.017H617.039L627.039 336.017L634.039 295.517L672.039 303.517L677.039 350.517L667.539 376.517L679.539 429.017L645.539 456.017L642.039 469.517L612.039 507.017L491.539 483.017L479.039 550.017L448.039 541.517L443.539 577.017L401.039 574.017L387.039 617.017L315.039 600.517L282.539 610.517L273.039 531.517L251.039 486.517Z" stroke="black"/>
<path d="M180.539 250.017L290.039 258.517L249.039 486.517L179.039 459.517L64.5391 434.017L43.0391 410.517L31.0391 385.517L42.7891 375.267L54.5391 365.017L83.7891 372.267L113.039 379.517L135.539 350.517L156.039 359.017L175.039 334.017L179.039 301.517L162.039 300.017L158.039 264.017L180.539 250.017Z" stroke="black"/>
<path d="M357.039 273.017L291.539 257.017L311.539 202.017L339.539 46.5165L398.539 2.51654L447.039 6.51654V0.516541L508.539 2.51654L537.539 25.0165L548.539 40.5165V60.0165L565.039 84.0165L562.539 94.5165L543.539 102.017L530.039 185.017L548.539 188.017L537.539 236.517L546.039 339.017L529.539 347.517L430.039 326.517L357.039 273.017Z" stroke="black"/>
<path d="M296.039 63.5165L337.039 48.5165L308.039 202.017L290.039 256.517L180.539 248.017L154.539 264.017L109.539 246.017L69.0391 284.017L49.5391 292.517L8.53906 341.017L0.539062 326.517L21.5391 256.017L39.5391 260.517L57.5391 256.017L67.0391 242.017L78.5391 178.517L57.5391 172.517L14.0391 115.017L8.53906 96.0165L83.5391 46.5165L107.539 40.5165L130.539 44.0165L173.039 38.0165L217.539 59.0165L245.039 63.5165H296.039Z" stroke="black"/>
</svg>
